<svg xmlns="http://www.w3.org/2000/svg" width="32" height="32" viewBox="0 0 32 32">
  <defs>
    <linearGradient id="g" x1="0" y1="0" x2="32" y2="32">
      <stop offset="0%" stop-color="#F59E0B"/>
      <stop offset="100%" stop-color="#D946EF"/>
    </linearGradient>
    <linearGradient id="bg" x1="0" y1="0" x2="32" y2="32">
      <stop offset="0%" stop-color="#FFFBEB"/>
      <stop offset="100%" stop-color="#FAF5FF"/>
    </linearGradient>
  </defs>
  <!-- 배경 라운드 -->
  <rect width="32" height="32" rx="7" fill="url(#bg)"/>
  <rect width="32" height="32" rx="7" fill="none" stroke="url(#g)" stroke-width="1.2" opacity="0.3"/>
  <!-- 뇌 외곽 -->
  <path d="M16 5C12 5 9 7.2 9 10.5c0 1.3.4 2.5 1.1 3.4C9.4 15 9 16.3 9 17.8 9 21 11.5 23.5 15 25c.3.1.7.2 1 .2s.7-.1 1-.2c3.5-1.5 6-4 6-7.2 0-1.5-.4-2.8-1.1-3.9.7-.9 1.1-2.1 1.1-3.4C23 7.2 20 5 16 5z" fill="none" stroke="url(#g)" stroke-width="1.6" stroke-linecap="round"/>
  <!-- 중앙 홈 -->
  <line x1="16" y1="8" x2="16" y2="23" stroke="url(#g)" stroke-width="0.8" opacity="0.35"/>
  <!-- 좌뇌 -->
  <path d="M12 10.5c1.2.4 2 1.6 1.6 2.8" stroke="url(#g)" stroke-width="1.5" stroke-linecap="round" fill="none"/>
  <path d="M11 16c1.6.3 2.4 1.2 2 2.5" stroke="url(#g)" stroke-width="1.5" stroke-linecap="round" fill="none"/>
  <!-- 우뇌 -->
  <path d="M20 10.5c-1.2.4-2 1.6-1.6 2.8" stroke="url(#g)" stroke-width="1.5" stroke-linecap="round" fill="none"/>
  <path d="M21 16c-1.6.3-2.4 1.2-2 2.5" stroke="url(#g)" stroke-width="1.5" stroke-linecap="round" fill="none"/>
  <!-- 시냅스 -->
  <circle cx="11" cy="12" r="1.3" fill="#F59E0B" opacity="0.8"/>
  <circle cx="21" cy="12" r="1.3" fill="#D946EF" opacity="0.8"/>
  <circle cx="13.5" cy="18" r="1" fill="#F59E0B" opacity="0.5"/>
  <circle cx="18.5" cy="18" r="1" fill="#D946EF" opacity="0.5"/>
</svg>
